# xmcd CD database file
#
# Track frame offsets:
#	150
#	5896
#	10680
#	20149
#	62750
#	71549
#	83969
#	96942
#	110046
#	127076
#	133000
#	169249
#	204792
#	227800
#
# Disc length: 3164 seconds
#
# Revision: 0
# Processed by: cddbd v1.5.2PL0 Copyright (c) Steve Scherf et al.
# Submitted via: CDex 1.70beta2
#
DISCID=c40c5a0e
DTITLE=Mimi Rutherfurt - Das  Indisches Kind
DYEAR=2010
DGENRE=Hoerbuch
TTITLE0=01 Das  Indisches Kind
TTITLE1=02 Das  Indisches Kind
TTITLE2=03 Das  Indisches Kind
TTITLE3=04 Das  Indisches Kind
TTITLE4=05 Das  Indisches Kind
TTITLE5=06 Das  Indisches Kind
TTITLE6=07 Das  Indisches Kind
TTITLE7=08 Das  Indisches Kind
TTITLE8=09 Das  Indisches Kind
TTITLE9=10 Das  Indisches Kind
TTITLE10=11 Das  Indisches Kind
TTITLE11=12 Das  Indisches Kind
TTITLE12=13 Das  Indisches Kind
TTITLE13=14 Das  Indisches Kind
EXTD=YEAR: 2010
EXTT0=
EXTT1=
EXTT2=
EXTT3=
EXTT4=
EXTT5=
EXTT6=
EXTT7=
EXTT8=
EXTT9=
EXTT10=
EXTT11=
EXTT12=
EXTT13=
PLAYORDER=
